<?xml version="1.0" encoding="UTF-8"?>
<!DOCTYPE svg PUBLIC "-//W3C//DTD SVG 1.1//EN" "http://www.w3.org/Graphics/SVG/1.1/DTD/svg11.dtd">
<!-- Creator: CorelDRAW -->
<svg xmlns="http://www.w3.org/2000/svg" xml:space="preserve" width="2048px" height="2048px" style="shape-rendering:geometricPrecision; text-rendering:geometricPrecision; image-rendering:optimizeQuality; fill-rule:evenodd; clip-rule:evenodd"
viewBox="0 0 2048 2048"
 xmlns:xlink="http://www.w3.org/1999/xlink">
 <defs>
  <style type="text/css">
   <![CDATA[
    .fil2 {fill:none}
    .fil0 {fill:#424242}
    .fil1 {fill:#FFFFFE;fill-rule:nonzero}
   ]]>
  </style>
 </defs>
 <rect class="fil0" width="2048" height="2048"/>
 <g id="Layer_x0020_1">
  <metadata id="CorelCorpID_0Corel-Layer"/>
  <path class="fil1" d="M1001 1766.13c-49.78,-51.5788 -136.004,-97.5579 -227.315,-146.248 -196.432,-104.745 -414.835,-221.208 -401.509,-451.119 7.19764,-124.181 50.4508,-199.075 90.443,-268.322 28.2827,-48.9709 54.7559,-94.8095 61.8378,-152.917 2.40236,-19.7067 -7.10316,-32.6835 -18.6354,-48.4276 -20.9729,-28.6311 -46.2898,-63.1902 -49.9075,-138.06 -0.672048,-13.9146 -0.198425,-27.1063 1.35118,-39.5894 1.62402,-13.0831 4.42205,-25.7977 8.31142,-38.1331l15.3496 -48.6756 37.0252 34.9252c10.9276,10.3087 23.6835,18.5421 37.6571,24.0921 13.3347,5.29607 28.1091,8.20867 43.8213,8.20867 32.7685,0 62.4331,-13.2803 83.9032,-34.7504 21.4677,-21.4677 34.7492,-51.1347 34.7492,-83.9032 0,-10.0843 -1.15394,-19.6122 -3.32717,-28.474 -2.29488,-9.35906 -5.69056,-18.2622 -10.0358,-26.5618l54 -33.6248c1.92047,2.62559 2.97874,4.19174 4.23307,6.04961 11.7992,17.4756 43.4209,64.3087 110.394,64.3087 30.9177,0 50.9764,-7.10788 65.491,-19.0288 15.6154,-12.8256 27.5008,-33.0485 39.7914,-56.6256l8.9941 -17.2512 19.3807 0 30.8965 0 20.6043 0 8.52048 18.8752c10.0063,22.1681 19.8142,41.9469 34.702,54.4252 14.4768,12.1335 36.4016,19.6051 72.926,19.6051 28.0701,0 49.9288,-7.33465 66.5918,-17.2441 24.4677,-14.5512 37.787,-34.004 43.0016,-43.9607 0.412205,-0.849213 0.830316,-1.69488 1.25433,-2.53701l0.279921 -0.616536 0.0271654 0.011811c0.32126,-0.630709 0.644882,-1.25906 0.973229,-1.88622l57.4997 27.6248c-0.929528,2.09764 -2.21693,4.72441 -3.87166,7.75158 -2.99173,6.58111 -5.40237,13.4988 -7.16457,20.6847 -2.17323,8.86182 -3.32717,18.3898 -3.32717,28.474 0,32.7685 13.2815,62.4355 34.7492,83.9032 21.4701,21.4701 51.1347,34.7504 83.9032,34.7504 15.7122,0 30.4866,-2.9126 43.8213,-8.20867 13.9736,-5.55 26.7295,-13.7835 37.6571,-24.0921l37.0252 -34.9252 15.3496 48.6756c3.88937,12.3354 6.68741,25.05 8.31142,38.1331 1.54961,12.4831 2.02323,25.6748 1.35118,39.5894 -3.61772,74.8701 -28.9347,109.429 -49.9075,138.06 -11.5323,15.7441 -21.0378,28.7209 -18.6354,48.4276 6.90709,56.6552 33.2988,102.687 61.5804,152.016 40.0548,69.8634 83.5418,145.712 90.7005,269.223 13.3252,229.911 -205.077,346.374 -401.509,451.119 -91.3111,48.6898 -177.535,94.669 -227.315,146.248l-22.9996 23.8299 -22.9996 -23.8299zm-197.315 -202.499c83.8914,44.7331 163.695,87.2894 220.315,136.506 56.6197,-49.2166 136.423,-91.7729 220.315,-136.506 179.339,-95.6304 378.736,-201.959 367.758,-391.367 -6.26457,-108.095 -45.9225,-177.262 -82.4493,-240.973 -31.5957,-55.1103 -61.0808,-106.537 -69.5812,-176.267 -5.42008,-44.4591 10.8709,-66.6957 30.6355,-93.678 15.8445,-21.6295 34.9713,-47.7402 37.6571,-103.31 0.172441,-3.5752 0.229134,-7.14095 0.172441,-10.6984 -4.11851,2.00551 -8.3256,3.86457 -12.6165,5.5689 -21.052,8.36103 -43.7776,12.9591 -67.3205,12.9591 -50.4343,0 -96.0981,-20.4461 -129.154,-53.5016 -27.9307,-27.9307 -46.8591,-64.8674 -52.0548,-106.077 -24.3945,13.213 -55.0382,22.6229 -92.7083,22.6229 -53.5583,0 -88.3713,-13.1882 -113.927,-34.6075 -17.3162,-14.5146 -29.1236,-31.6866 -39.1347,-50.5831 -11.6764,19.598 -24.724,37.0122 -42.254,51.4099 -25.7681,21.1642 -58.6075,33.7807 -105.991,33.7807 -38.413,0 -68.7934,-9.77481 -92.6316,-23.263 -5.08111,41.4674 -24.0567,78.6426 -52.1315,106.717 -33.0555,33.0555 -78.7194,53.5016 -129.154,53.5016 -23.5429,0 -46.2685,-4.59804 -67.3205,-12.9591 -4.29095,-1.70433 -8.49804,-3.56339 -12.6165,-5.5689 -0.056693,3.55748 0,7.12323 0.172441,10.6984 2.68583,55.5697 21.8126,81.6804 37.6571,103.31 19.7646,26.9823 36.0555,49.2189 30.6355,93.678 -8.65985,71.054 -38.3587,122.478 -70.089,177.418 -36.3343,62.9126 -75.6308,130.957 -81.9414,239.822 -10.9795,189.409 188.42,295.736 367.758,391.367z"/>
  <path class="fil1" d="M1024 687.999c120.774,0 230.118,48.9567 309.267,128.107 79.1505,79.1493 128.107,188.493 128.107,309.267 0,120.774 -48.9567,230.118 -128.107,309.267 -79.1493,79.1505 -188.493,128.107 -309.267,128.107 -120.774,0 -230.118,-48.9567 -309.267,-128.107 -79.1505,-79.1493 -128.107,-188.493 -128.107,-309.267 0,-120.774 48.9567,-230.118 128.107,-309.267 79.1493,-79.1505 188.493,-128.107 309.267,-128.107zm264.017 173.358c-67.5638,-67.565 -160.909,-109.356 -264.017,-109.356 -103.108,0 -196.453,41.791 -264.017,109.356 -67.565,67.5638 -109.356,160.909 -109.356,264.017 0,103.108 41.791,196.453 109.356,264.017 67.5638,67.565 160.909,109.356 264.017,109.356 103.108,0 196.453,-41.791 264.017,-109.356 67.565,-67.5638 109.356,-160.909 109.356,-264.017 0,-103.108 -41.791,-196.453 -109.356,-264.017z"/>
  <path class="fil1" d="M1054.45 868.764l48.3343 149.736 157.678 -0.301181c17.6043,0 31.8756,14.2713 31.8756,31.8756 0,10.6158 -5.19095,20.0185 -13.1717,25.8118l0.046063 0.0637796 -127.699 92.4036 49.0016 149.83c5.45315,16.7752 -3.7252,34.7977 -20.5004,40.2508 -10.9394,3.5563 -22.4079,0.889371 -30.5764,-6.04843l-125.444 -91.5095 -127.395 92.9327c-14.2205,10.3547 -34.1457,7.22008 -44.5004,-7.0004 -6.24449,-8.57481 -7.5815,-19.2236 -4.54252,-28.5981l-0.0826772 -0.0271654 49.0016 -149.83 -127.699 -92.4036c-14.2902,-10.3547 -17.4803,-30.3355 -7.1256,-44.6256 6.73701,-9.29764 17.55,-13.8933 28.2177,-13.1209l155.336 0.296457 48.4134 -149.98c5.38465,-16.7752 23.3504,-26.0103 40.1256,-20.6256 10.2673,3.29528 17.7095,11.3055 20.7047,20.8701zm-5.26063 191.406l-25.1941 -78.0497 -25.1941 78.0497 -0.0188977 -0.00590552c-4.11733,12.8374 -16.1516,22.1315 -30.3567,22.1315l-82.0772 -0.157087 66.4831 48.1075 -0.00472441 0.00590552c10.9205,7.90985 16.0228,22.2307 11.6303,35.7449l-25.5366 78.0839 65.8182 -48.0142c10.9063,-8.28072 26.3669,-8.84528 38.0067,-0.369685l66.3249 48.3839 -25.1551 -76.9182c-4.82953,-13.0984 -0.616536,-28.3229 11.2441,-36.9166l66.4831 -48.1075 -80.5961 0.154725c-14.048,0.661418 -27.3532,-8.09292 -31.8567,-22.1232z"/>
  <path class="fil1" d="M718.158 748.757l-69.5445 -111.294 36.0449 -22.5236c13.6559,-8.53229 22.9264,-13.5331 27.7677,-15.0095 7.41142,-2.32441 15.0425,-2.04921 22.8414,0.861024 7.79882,2.90906 14.4673,8.79449 19.989,17.6315 4.27441,6.83977 6.62481,13.3701 7.03465,19.5626 0.42874,6.21851 -0.424016,11.8323 -2.59134,16.8969 -2.15788,5.02323 -4.9441,9.21379 -8.34804,12.5303 -4.69961,4.41496 -12.1335,9.81615 -22.3169,16.1799l-14.641 9.14764 26.2311 41.9788 -22.4669 14.0386zm-35.3055 -106.494l19.7209 31.5614 12.2823 -7.67481c8.863,-5.53819 14.4402,-9.81497 16.6914,-12.8445 2.25236,-3.02835 3.45,-6.29882 3.60591,-9.85513 0.129921,-3.54095 -0.811418,-6.95079 -2.86772,-10.2425 -2.52638,-4.04174 -5.80748,-6.64016 -9.84213,-7.79292 -3.99449,-1.14331 -8.06103,-0.907087 -12.0945,0.711024 -3.02008,1.16575 -8.55473,4.30158 -16.6382,9.35316l-10.8579 6.78426zm114.373 -16.3039c-4.35709,-12.6532 -6.12993,-23.9043 -5.29961,-33.7878 0.662599,-7.27323 2.54528,-14.2866 5.69646,-20.9953 3.16181,-6.67914 7.22363,-12.2469 12.1949,-16.6736 6.60827,-5.95867 14.9492,-10.6406 25.0618,-14.1225 18.2882,-6.29764 34.8555,-5.66811 49.7445,1.90512 14.8784,7.54489 25.7988,21.4299 32.752,41.6244 6.90473,20.0504 6.83504,37.5886 -0.157087,52.6654 -7.00158,15.0461 -19.6122,25.7232 -37.8142,31.9902 -18.4618,6.3567 -35.0776,5.77678 -49.839,-1.7126 -14.7721,-7.51654 -25.5461,-21.1606 -32.3398,-40.8933zm25.5106 -9.72048c4.83426,14.041 11.7709,23.5772 20.739,28.5992 8.99646,5.01496 18.476,5.79095 28.4717,2.34921 9.96733,-3.43229 16.9382,-9.83977 20.8642,-19.2721 3.90827,-9.39213 3.40512,-21.2717 -1.54961,-35.6599 -4.89449,-14.2146 -11.6658,-23.7425 -20.2937,-28.6252 -8.64804,-4.84134 -18.1441,-5.48268 -28.4575,-1.93228 -10.3429,3.56221 -17.4402,9.98032 -21.3295,19.2378 -3.86103,9.24686 -3.36851,21.0012 1.55551,35.3032zm139.204 29.3492l-2.27126 -130.147 26.4874 -0.461811 1.88622 108.028 65.8666 -1.15039 0.386221 22.1185 -92.3552 1.61221zm110.393 1.55551l13.7173 -130.518 26.3457 2.76969 -13.7173 130.517 -26.3457 -2.76851zm145.942 -15.2894l21.8988 15.6614c-8.17678,12.411 -17.6811,20.5028 -28.5532,24.2965 -10.8319,3.77362 -22.9795,3.48898 -36.3768,-0.863386 -16.565,-5.38229 -28.3524,-15.4772 -35.3433,-30.2481 -6.98386,-14.798 -7.29804,-32.0244 -0.923623,-51.6402 6.75119,-20.778 17.3669,-35.1591 31.8296,-43.1835 14.452,-7.99371 30.417,-9.1689 47.9115,-3.48425 15.2551,4.95709 26.2004,13.4929 32.7969,25.6288 3.96733,7.16812 5.71654,16.2189 5.31733,27.1406l-26.8984 -2.15315c0.651969,-6.95315 -0.766536,-13.0677 -4.25552,-18.3473 -3.46063,-5.2689 -8.55237,-8.97993 -15.2362,-11.1508 -9.24213,-3.00355 -17.8441,-2.13425 -25.7599,2.6504 -7.90749,4.75512 -14.2784,14.5725 -19.1126,29.452 -5.12717,15.7784 -5.96103,27.9414 -2.4378,36.476 3.48544,8.55473 9.78072,14.2949 18.848,17.2406 6.71221,2.1815 13.1563,1.92874 19.3677,-0.775985 6.20315,-2.6752 11.8417,-8.26418 16.9276,-16.6996zm30.6296 67.0843l71.4768 -110.063 81.593 52.9867 -12.0992 18.6307 -59.3752 -38.5583 -15.8421 24.3957 55.2496 35.8784 -12.0319 18.528 -55.2496 -35.8796 -19.454 29.9575 61.4764 39.9237 -12.0484 18.5528 -83.6953 -54.352z"/>
  <rect class="fil2" width="2048" height="2048"/>
 </g>
</svg>
